# xmcd CD database file
#
# Track frame offsets:
#	150
#	10972
#	24175
#	45620
#	57020
#	68377
#	82715
#	91767
#	103550
#	120005
#	134452
#	148620
#	157620
#	173905
#	188067
#	202332
#	213337
#
# Disc length: 3057 seconds
#
# Revision: 1
# Processed by: cddbd v1.5.2PL0 Copyright (c) Steve Scherf et al.
# Submitted via: CDex 1.51
#
DISCID=c90bef11
DTITLE=Guitares and Legends - Amerika the West
DYEAR=1999
DGENRE=Country
TTITLE0=King of the road - roger miller
TTITLE1=If I where a carpenter - johnny cash
TTITLE2=The city of New Orleans - willie nelson
TTITLE3=In the pines - dolly parton
TTITLE4=Today I started loving again - charlie mccoy
TTITLE5=Unwed fathers - tammy wynette
TTITLE6=Rawhide - frankie laine
TTITLE7=The most beautiful girl - charlie rich
TTITLE8=(Ghost) riders in the sky - johnny cash
TTITLE9=Young thing - chet atkins
TTITLE10=Tennessee flat top box - rosanne cash
TTITLE11=If you've got the money I've got the time - willie nelson
TTITLE12=Jolene - dolly parton 
TTITLE13=I'm a lonesome fugitive - merle haggard
TTITLE14=So sad (to watch good love go bad) sweethearts of the rodeo
TTITLE15=I'm so lonesome I could cry - charlie mccoy
TTITLE16=I dreamed of a hillbilly heaven - dolly parton, tammy wynette and loretta lynn
EXTD=YEAR: 1999
EXTT0=
EXTT1=
EXTT2=
EXTT3=
EXTT4=
EXTT5=
EXTT6=
EXTT7=
EXTT8=
EXTT9=
EXTT10=
EXTT11=
EXTT12=
EXTT13=
EXTT14=
EXTT15=
EXTT16=
PLAYORDER=
